La storia d'Italia

Istituto Luce

Il Dopoguerra e L'Avvento del Fascismo
(1915-1922)

 - Descrizione - 

Nello splendore del supporto digitale, gli ultimi 140 anni di vita italiana (dall’Unità al nuovo millennio) rivivono oggi in 30 ore di filmati esclusivi. 
Un’opera imponente, resa possibile grazie all’immenso archivio dell’Istituto Luce, alla testimonianza di alcuni tra i maggiori storici del nostro paese: Valerio Castronovo, Renzo De Felice e Pietro Scoppola e alla regia di Folco Quilici.

 - Scheda tecnica - 

General
Format                           : AVI
Format/Info                      : Audio Video Interleave
File size                        : 1.41 GiB
Duration                         : 2h 49mn
Overall bit rate                 : 1 193 Kbps
Writing application              : VirtualDubMod 1.5.10.2 (build 2542/release)
Writing library                  : VirtualDub build 32593/release

Video
ID                               : 0
Format                           : MPEG-4 Visual
Format profile                   : Simple@L3
Format settings, BVOP            : Yes
Format settings, QPel            : No
Format settings, GMC             : No warppoints
Format settings, Matrix          : Default (MPEG)
Codec ID                         : XVID
Codec ID/Hint                    : XviD
Duration                         : 2h 49mn
Bit rate                         : 1 056 Kbps
Width                            : 576 pixels
Height                           : 432 pixels
Display aspect ratio             : 4:3
Frame rate                       : 25.000 fps
Resolution                       : 24 bits
Colorimetry                      : 4:2:0
Scan type                        : Progressive
Bits/(Pixel*Frame)               : 0.170
Stream size                      : 1.25 GiB (88%)
Writing library                  : XviD 0.0.09 (UTC 2003-03-25)

Audio
ID                               : 1
Format                           : MPEG Audio
Format version                   : Version 1
Format profile                   : Layer 3
Codec ID                         : 55
Codec ID/Hint                    : MP3
Duration                         : 2h 49mn
Bit rate mode                    : Constant
Bit rate                         : 128 Kbps
Channel(s)                       : 2 channels
Sampling rate                    : 48.0 KHz
Resolution                       : 16 bits
Stream size                      : 155 MiB (11%)
Alignment                        : Aligned on interleaves
Interleave, duration             : 40 ms (1.00 video frame)
Interleave, preload duration     : 504 ms
Writing library                  : LAME3.98r
Encoding settings                : -m j -V 4 -q 3 -lowpass 17 -b 128

Visit http://www.tntvillage.scambioetico.org/